<?xml version="1.0" encoding="utf-8"?>
<!-- Generator: Adobe Illustrator 19.0.0, SVG Export Plug-In . SVG Version: 6.00 Build 0)  -->
<svg version="1.1" id="Layer_1" xmlns="http://www.w3.org/2000/svg" xmlns:xlink="http://www.w3.org/1999/xlink" x="0px" y="0px"
	 viewBox="0 0 66.5 27.3" style="enable-background:new 0 0 66.5 27.3;" xml:space="preserve">
<style type="text/css">
	.st0{fill:#D80505;}
</style>
<g id="XMLID_1_">
	<path id="XMLID_68_" class="st0" d="M19.2,9.1c-0.1,0.2-0.3,0.5-0.5,0.9c-0.1,0.2-0.3,0.5-0.5,0.9c-0.4,0.7-0.7,1.2-0.9,1.5
		c0.3,0,0.6-0.1,0.9-0.2l1.3-0.4c0.5-0.1,0.9-0.2,1.4-0.2c0.8,0,1.4,0.3,1.9,0.9c0.5,0.6,0.8,1.3,0.8,2.3c0,1.3-0.4,2.4-1.3,3.4
		c-0.8,1-1.8,1.5-2.9,1.5c-0.8,0-1.5-0.3-2.2-0.8c-0.6-0.5-1.4-1.5-2.4-3l-0.2,0.2c-2.1,2.4-4,3.6-5.7,3.6c-1.4,0-2.6-0.6-3.5-1.8
		C4.4,16.6,4,15.1,4,13.3c0-2,0.6-3.5,1.7-4.7c0.9-0.9,1.9-1.4,3-1.4c0.9,0,1.8,0.4,2.6,1.3c0.5,0.5,1.4,1.9,2.7,3.9
		c0.4,0.7,0.8,1.3,1.1,1.7l0.2,0.3c0.3-0.4,0.5-0.7,0.7-0.9c-0.8-0.7-1.2-1.7-1.2-2.9c0-0.8,0.3-1.2,0.9-1.2c-0.4,0.5-0.5,1-0.5,1.5
		c0,0.4,0.1,0.8,0.4,1.1c0.3,0.3,0.6,0.4,1,0.4c0,0,0.1,0,0.3,0l0.1-0.1c0.3-0.4,0.7-1.1,1.3-2.2c0.6-1,1-1.7,1.2-2.1l0.3-0.6
		l0.2-0.3c0,0,0.1-0.1,0.1-0.2l0.3,0.1c-0.1,0.2-0.2,0.5-0.2,0.9c0,0.5,0.2,1,0.5,1.5c0.3,0.5,0.7,0.7,1,0.7c0.4,0,0.7-0.2,1-0.7
		C22.9,9.1,23,8.6,23,8c0-0.9-0.2-1.6-0.7-2.1c-0.5-0.5-1.2-0.7-2.1-0.7c-1,0-3,0.2-5.9,0.7c-1.3,0.2-2.3,0.3-3,0.3
		c-0.6,0-1-0.1-1.3-0.4L10,5.7c0.2-0.8,0.4-1.6,0.5-2.4l0.3,0.1c-0.1,0.3-0.1,0.6-0.1,0.8c0,0.5,0.4,0.8,1.2,0.8
		c0.5,0,1.4-0.1,2.8-0.4c2.7-0.5,4.6-0.7,5.6-0.7c1.1,0,1.9,0.3,2.5,0.9c0.6,0.6,0.9,1.4,0.9,2.5c0,1.7-0.6,3-1.8,3.7
		c-0.5,0.3-0.8,0.4-0.9,0.4C20.5,11.3,20,10.6,19.2,9.1z M14.6,15.4l-0.1-0.1c-0.3-0.5-0.8-1.2-1.3-2c-1.3-2.1-2.3-3.5-3-4.2
		C9.5,8.4,8.7,8,7.9,8c-1,0-1.8,0.5-2.4,1.4c-0.7,0.9-1,2.1-1,3.5c0,1.6,0.5,3,1.5,4.1c1,1.2,2.2,1.7,3.5,1.7
		C11.1,18.8,12.8,17.7,14.6,15.4z M15.5,14.8c0.4,0.7,1,1.4,1.7,2.2c1,1.2,1.9,1.8,2.8,1.8c0.8,0,1.5-0.4,2.1-1.1
		c0.6-0.7,0.9-1.6,0.9-2.6c0-0.7-0.2-1.3-0.5-1.7c-0.4-0.4-0.8-0.7-1.4-0.7c-0.4,0-1.3,0.2-2.5,0.6c-0.8,0.3-1.3,0.4-1.8,0.4
		c-0.1,0-0.3,0-0.4-0.1c0,0.1-0.1,0.1-0.1,0.1L16,14.2l-0.4,0.5C15.6,14.7,15.6,14.8,15.5,14.8z"/>
	<path id="XMLID_72_" class="st0" d="M29.8,10.2l-0.3,1.1c-0.2-0.1-0.4-0.1-0.6-0.1c-0.7,0-1.3,0.7-2.1,2c-0.3,0.6-0.6,1.3-0.9,2.1
		c-0.2,0.7-0.6,1.9-0.9,3.4L25,19.1c-0.4,0.1-0.7,0.2-1,0.4l0.1-0.3l0.7-2.6c0.7-2.5,1.1-4,1.1-4.4c0-0.2-0.1-0.3-0.2-0.3
		c-0.1,0-0.3,0.1-0.6,0.3l-0.1-0.3c0.8-0.5,1.5-1.1,2.1-1.7c0,0.1,0,0.3,0,0.4c0,0.6-0.2,1.5-0.6,2.9l0.2-0.3
		c1.3-1.9,2.2-2.8,2.8-2.8C29.6,10.1,29.7,10.1,29.8,10.2z"/>
	<path id="XMLID_74_" class="st0" d="M34,17.7l0.2,0.3c-0.6,0.6-1.4,1-2.4,1.4c0-0.7,0.4-2,1-3.9c-0.7,1.1-1.5,2.1-2.2,2.8
		c-0.8,0.7-1.4,1.1-1.8,1.1c-0.4,0-0.6-0.3-0.6-1c0-1.1,0.4-2.3,1.1-3.6c0.8-1.3,1.7-2.4,2.9-3.2c1.3-1,2.6-1.4,3.9-1.4
		c0.2,0,0.3,0.1,0.3,0.3c0,0.1-0.1,0.4-0.3,0.8c-0.4-0.1-0.8-0.1-1.1-0.1c-1.7,0-3.2,0.9-4.4,2.6c-0.9,1.3-1.4,2.6-1.4,3.8
		c0,0.6,0.2,0.9,0.5,0.9c0.3,0,0.7-0.3,1.2-1c0.5-0.6,1-1.4,1.4-2.2c0.6-1.2,1-2.4,1.2-3.6c0.2,0.2,0.4,0.5,0.4,1.1
		c0,0.7-0.3,1.5-0.8,2.5c0.3,0,0.6-0.1,1-0.3l-0.1,0.2c-0.5,1.6-0.8,2.5-0.8,2.8c0,0.2,0.1,0.3,0.2,0.3C33.4,18.1,33.6,18,34,17.7z"
		/>
	<path id="XMLID_76_" class="st0" d="M40.5,17.8l0.1,0.3c-0.7,0.6-1.5,1.1-2.4,1.3c0.1-1.2,0.7-3.1,1.6-5.6l0.5-1.4
		c0.2-0.5,0.3-0.8,0.3-0.9c0-0.2-0.1-0.3-0.2-0.3c-0.2,0-0.5,0.3-1,0.8c-0.5,0.5-1,1.1-1.4,1.8c-1,1.4-1.8,3.1-2.4,5.1
		c-0.3,0.1-0.6,0.3-1.1,0.5c0.5-1.4,1-3,1.6-4.7c0.5-1.7,0.8-2.8,0.8-3.1c0-0.3-0.1-0.4-0.2-0.4c-0.1,0-0.3,0.1-0.5,0.2
		c0,0-0.1,0-0.1,0L36,11.1c0.8-0.3,1.5-0.6,2.1-1l0.1-0.1c0,0.1,0,0.2,0,0.2c0,0.7-0.4,2.1-1.1,4.2L37,14.8l0.1-0.2
		c0.9-1.4,1.8-2.5,2.5-3.3c0.8-0.8,1.4-1.2,1.8-1.2c0.3,0,0.4,0.2,0.4,0.6c0,0.4-0.4,1.5-1.1,3.4c-0.9,2.3-1.3,3.5-1.3,3.8
		c0,0.2,0.1,0.3,0.2,0.3C39.9,18.2,40.2,18.1,40.5,17.8L40.5,17.8z"/>
	<path id="XMLID_78_" class="st0" d="M50.3,4.2c0,0.5-0.3,1.6-0.8,3.3l-0.6,2.1l-0.2,0.8c0.3,0.2,0.5,0.5,0.5,1.1
		c-0.2-0.1-0.5-0.2-0.8-0.2l-0.1,0.2L47.2,15c-0.5,1.7-0.8,2.7-0.8,2.9c0,0.2,0.1,0.3,0.2,0.3c0.2,0,0.4-0.1,0.8-0.4
		c0,0,0,0,0.1-0.1l0.2,0.3c-0.6,0.6-1.5,1-2.5,1.4l0.1-0.4c0.2-0.9,0.5-2,0.9-3.3c0.1-0.4,0.2-0.8,0.4-1.1l0.9-3.2l0.1-0.2
		c-0.6,0-1.3,0.2-2,0.6c-0.7,0.4-1.3,1-1.8,1.7c-1,1.3-1.5,2.6-1.5,4c0,0.6,0.2,0.9,0.5,0.9c0.3,0,0.8-0.3,1.3-0.9
		c0.5-0.6,1-1.4,1.4-2.3c0.4-0.8,0.7-1.8,0.9-2.8c0.1,0.3,0.1,0.6,0.1,0.9c0,0.6-0.2,1.3-0.6,2.1c-0.4,0.8-0.9,1.6-1.6,2.4
		c-1,1.1-1.8,1.7-2.3,1.7c-0.4,0-0.6-0.4-0.6-1.1c0-0.6,0.1-1.3,0.4-2.1c0.3-0.8,0.7-1.6,1.2-2.3c1.4-2,3-3.2,4.9-3.7L48,9.5
		l0.6-2.1c0.2-0.6,0.3-1,0.3-1.2c0-0.3-0.1-0.5-0.4-0.5c-0.1,0-0.3,0-0.5,0.1l-0.1-0.3L48,5.5C48.9,5,49.7,4.6,50.3,4.2z"/>
	<path id="XMLID_80_" class="st0" d="M57.5,4.1c0,0.9-0.5,2.7-1.4,5.4c-1.6,4.7-2.4,7.5-2.4,8.2c0,0.3,0.1,0.5,0.3,0.5
		c0.2,0,0.5-0.2,0.9-0.7l0.1-0.1l0.2,0.3c-0.9,1-1.6,1.6-2,1.6c-0.3,0-0.5-0.3-0.5-0.9c0-0.5,0.1-1.2,0.3-2c0.2-0.9,0.8-2.7,1.7-5.5
		l0.8-2.5C56,6.9,56.2,6,56.2,5.8c0-0.2-0.1-0.3-0.3-0.3c-0.1,0-0.2,0-0.4,0.1c0,0-0.1,0-0.1,0.1l-0.1-0.3l0.1-0.1
		C56.4,4.8,57.1,4.4,57.5,4.1z"/>
	<path id="XMLID_82_" class="st0" d="M58.1,10.4c0.1,0.3,0.1,0.7,0.1,1.1c0,0.9-0.2,2.2-0.5,3.9c0.9-1.5,1.7-2.7,2.5-3.6
		c0.8-0.9,1.4-1.3,1.8-1.3c0.3,0,0.5,0.4,0.5,1.1c0,1.8-0.8,3.9-2.4,6.1c-0.7,1-1.4,1.8-2.1,2.3c-0.6,0.5-1.4,0.8-2.2,1
		c-0.7,0.1-1.2,0.4-1.6,0.7c-0.3,0.3-0.5,0.7-0.5,1.2c0,0.4,0.2,0.7,0.5,1c0.3,0.2,0.7,0.4,1.2,0.4c0.6,0,1.2-0.2,1.6-0.6
		c-0.1,0.9-0.7,1.4-1.6,1.4c-0.6,0-1-0.2-1.4-0.5c-0.4-0.4-0.5-0.8-0.5-1.4c0-0.7,0.3-1.5,0.8-2.3c0.3-0.4,0.5-0.6,0.8-0.8
		c0.3-0.1,0.9-0.3,1.7-0.4c0.7-0.1,1.3-0.3,1.8-0.7c0.7-0.6,1.3-1.4,1.9-2.4c0.3-0.6,0.5-1.2,0.7-1.9c0.2-0.7,0.3-1.3,0.3-1.8
		c0-0.6-0.2-0.9-0.5-0.9c-0.5,0-1.2,0.7-2.2,2.2c-0.9,1.5-1.7,3.2-2.4,5.1l-0.1,0.2h-0.3l0.1-0.4c0.6-3,1-5.1,1-6.4
		c0-0.5-0.1-0.7-0.3-0.7c-0.1,0-0.2,0-0.4,0.1c0,0-0.1,0-0.1,0.1l-0.1-0.3c0.1,0,0.1-0.1,0.1-0.1l0.8-0.5l0.8-0.6
		C58,10.5,58,10.5,58.1,10.4z"/>
</g>
</svg>
